<svg width="18" height="18" viewBox="0 0 18 18" fill="none" xmlns="http://www.w3.org/2000/svg">
<path fill-rule="evenodd" clip-rule="evenodd" d="M5.85 15.3C6.59558 15.3 7.2 15.9044 7.2 16.65C7.2 17.3956 6.59558 18 5.85 18C5.10442 18 4.5 17.3956 4.5 16.65C4.5 15.9044 5.10442 15.3 5.85 15.3ZM13.9499 15.3C14.6955 15.3 15.2999 15.9044 15.2999 16.65C15.2999 17.3956 14.6955 18 13.9499 18C13.2044 18 12.5999 17.3956 12.5999 16.65C12.5999 15.9044 13.2044 15.3 13.9499 15.3ZM0.9 0H2.7C3.11004 0 3.46348 0.276156 3.56855 0.663965L3.58953 0.763149L4.02597 3.6H17.1C17.6398 3.6 18.0494 4.06861 17.9956 4.59031L17.9786 4.69524L16.4918 11.3857C16.2292 12.5674 15.2153 13.4229 14.0201 13.4951L13.8561 13.5H6.04425C4.76492 13.5 3.66927 12.6039 3.40439 11.3669L3.37565 11.2106L1.92787 1.8H0.9C0.402944 1.8 0 1.39706 0 0.9C0 0.438448 0.347436 0.0580436 0.795041 0.00605496L0.9 0H2.7H0.9ZM15.9781 5.4H4.30293L5.15476 10.9369C5.21711 11.3421 5.54379 11.6495 5.94307 11.6943L6.04429 11.7H13.8561C14.2428 11.7 14.5819 11.4538 14.7062 11.0956L14.7347 10.9952L15.9781 5.4Z" fill="white"/>
</svg>
