<svg width="60" height="17" viewBox="0 0 60 17" fill="none" xmlns="http://www.w3.org/2000/svg">
<path d="M5.66667 0C6.94783 0 7.95798 0.129339 8.69711 0.388017C9.45269 0.646698 9.98646 1.05088 10.2986 1.60057C10.627 2.15026 10.7913 2.86971 10.7913 3.75892C10.7913 4.61578 10.627 5.32715 10.2986 5.89301C9.98646 6.44272 9.45269 6.85499 8.69711 7.12981C7.94153 7.38851 6.92319 7.51783 5.64203 7.51783C4.36087 7.51783 3.34252 7.38851 2.58696 7.12981C1.84783 6.85499 1.31401 6.44272 0.985508 5.89301C0.673428 5.34332 0.517392 4.64004 0.517392 3.78317C0.517392 2.89396 0.673428 2.17451 0.985508 1.62482C1.31401 1.05897 1.85604 0.646698 2.6116 0.388017C3.36715 0.129339 4.38551 0 5.66667 0ZM5.64203 1.57632C4.443 1.57632 3.60531 1.74608 3.12899 2.08559C2.66908 2.40894 2.43913 2.96671 2.43913 3.75892C2.43913 4.53495 2.66908 5.09272 3.12899 5.43224C3.60531 5.77175 4.443 5.94151 5.64203 5.94151C6.85747 5.94151 7.69515 5.77175 8.15508 5.43224C8.615 5.09272 8.84493 4.53495 8.84493 3.75892C8.84493 2.96671 8.615 2.40894 8.15508 2.08559C7.69515 1.74608 6.85747 1.57632 5.64203 1.57632ZM12.1957 0.291013L12.0725 1.43081L9.0174 1.67332L8.15508 0.291013H12.1957ZM2.26667 6.7418L3.47392 6.91155C3.19469 7.15406 3.0058 7.45314 2.90725 7.80884C2.8087 8.14836 2.83334 8.46362 2.98116 8.75463C3.14542 9.04565 3.48213 9.23159 3.99131 9.31241L8.47537 10.0157C9.6087 10.1774 10.3971 10.525 10.8406 11.0585C11.2841 11.592 11.5058 12.3519 11.5058 13.3381C11.5058 14.2596 11.3252 14.9872 10.9638 15.5207C10.6188 16.0542 10.0275 16.4342 9.18986 16.6605C8.35218 16.8868 7.21885 17 5.78986 17C4.7058 17 3.79421 16.9353 3.05508 16.806C2.31594 16.6928 1.71643 16.4907 1.25652 16.1997C0.813044 15.9249 0.492754 15.5611 0.295652 15.1084C0.0985508 14.6557 0 14.0899 0 13.4108C0 12.8935 0.0739131 12.457 0.221739 12.1013C0.385993 11.7618 0.63237 11.4546 0.96087 11.1797C1.3058 10.9049 1.74928 10.6382 2.29131 10.3795L3.76957 9.57917L4.73044 9.91869L3.52319 10.816C3.19469 11.0585 2.91546 11.301 2.68551 11.5435C2.47198 11.7698 2.30773 12.0123 2.19276 12.271C2.0942 12.5459 2.04493 12.8693 2.04493 13.2411C2.04493 13.7908 2.15169 14.2111 2.36522 14.5021C2.57875 14.7932 2.95652 14.9872 3.49855 15.0842C4.04058 15.1974 4.79614 15.2539 5.76522 15.2539C6.73428 15.2539 7.48167 15.1974 8.00725 15.0842C8.54928 14.971 8.92704 14.7689 9.14059 14.4779C9.35413 14.1869 9.46088 13.7746 9.46088 13.2411C9.46088 12.8369 9.40341 12.5297 9.28841 12.3195C9.18986 12.1093 8.99276 11.9477 8.69711 11.8345C8.40146 11.7213 7.96617 11.6243 7.39131 11.5435L3.07971 10.9615C2.57053 10.8968 2.15991 10.7352 1.84783 10.4765C1.55218 10.2178 1.34686 9.91062 1.23189 9.55492C1.11691 9.19922 1.08406 8.84358 1.13333 8.48787C1.18261 8.11604 1.3058 7.77653 1.5029 7.46933C1.7 7.146 1.95459 6.90349 2.26667 6.7418ZM16.2761 0.291013L16.5471 2.54636L16.7442 2.91013V12.1013H14.65V0.291013H16.2761ZM22.1645 0L21.9181 1.94009H21.2283C20.522 1.94009 19.8157 2.08559 19.1094 2.37661C18.4031 2.65145 17.5408 3.04755 16.5225 3.56491L16.35 2.2796C17.237 1.56824 18.1239 1.01046 19.0109 0.606277C19.9143 0.202092 20.7848 0 21.6225 0H22.1645ZM30.2055 0C31.0924 0 31.8397 0.121255 32.4475 0.363766C33.0716 0.590108 33.5397 0.978125 33.8518 1.52782C34.1639 2.07751 34.32 2.82929 34.32 3.78317V12.1013H32.6692L32.3489 9.53067L32.2011 9.26391V3.78317C32.2011 3.05563 32.0286 2.53828 31.6837 2.2311C31.3552 1.90775 30.7146 1.74608 29.762 1.74608C29.1378 1.74608 28.3494 1.77841 27.3968 1.84308C26.4605 1.90775 25.5325 1.98051 24.6127 2.06134L24.4156 0.533523C24.974 0.436519 25.5818 0.347599 26.2388 0.266761C26.9122 0.185924 27.5939 0.121255 28.2837 0.0727529C28.9736 0.024251 29.6141 0 30.2055 0ZM33.3344 4.82596L33.3098 6.37803L27.5692 6.40228C26.9943 6.41847 26.5919 6.57204 26.362 6.86305C26.132 7.13788 26.017 7.52589 26.017 8.0271V8.77889C26.017 9.39323 26.1649 9.84593 26.4605 10.1369C26.7562 10.4118 27.2325 10.5492 27.8895 10.5492C28.3494 10.5492 28.8668 10.4684 29.4417 10.3067C30.033 10.1289 30.6243 9.86212 31.2156 9.50642C31.8069 9.15072 32.3489 8.69807 32.8417 8.14836V9.67618C32.661 9.9025 32.3982 10.1693 32.0533 10.4765C31.7247 10.7675 31.3223 11.0585 30.846 11.3495C30.3861 11.6243 29.8687 11.8588 29.2939 12.0528C28.7354 12.2306 28.1276 12.3195 27.4707 12.3195C26.7644 12.3195 26.1402 12.1983 25.5982 11.9558C25.0562 11.6971 24.6291 11.3252 24.317 10.8402C24.0214 10.339 23.8736 9.73274 23.8736 9.0214V7.73609C23.8736 6.81455 24.161 6.10321 24.7359 5.602C25.3272 5.08464 26.1484 4.82596 27.1997 4.82596H33.3344ZM43.1853 0C43.5466 0 43.949 0.0161674 44.3925 0.0485024C44.836 0.0808364 45.2877 0.137423 45.7476 0.21826C46.2239 0.299097 46.6592 0.412268 47.0534 0.557775L46.7824 1.89158C46.2403 1.84308 45.6655 1.81075 45.0577 1.79458C44.4664 1.76225 43.9572 1.74608 43.5302 1.74608C42.5775 1.74608 41.822 1.87541 41.2635 2.13409C40.7051 2.39277 40.3027 2.84546 40.0563 3.49215C39.8099 4.13885 39.6867 5.03614 39.6867 6.18402C39.6867 7.33189 39.8099 8.2373 40.0563 8.90014C40.3027 9.54686 40.7051 9.9995 41.2635 10.2582C41.822 10.5169 42.5775 10.6462 43.5302 10.6462C43.7766 10.6462 44.0969 10.6382 44.4911 10.622C44.8853 10.6058 45.3041 10.5815 45.7476 10.5492C46.2075 10.5169 46.6427 10.4684 47.0534 10.4037L47.2751 11.786C46.6674 11.9962 46.0022 12.1498 45.2795 12.2468C44.5732 12.3438 43.8669 12.3923 43.1606 12.3923C41.7809 12.3923 40.6722 12.1902 39.8345 11.786C38.9969 11.3818 38.3891 10.727 38.0114 9.82168C37.65 8.91633 37.4693 7.70378 37.4693 6.18402C37.4693 4.66429 37.6582 3.45173 38.036 2.54636C38.4137 1.64099 39.0215 0.994294 39.8592 0.606277C40.6969 0.202092 41.8056 0 43.1853 0ZM54.8499 0C56.6566 0 57.9624 0.323348 58.7673 0.970043C59.5885 1.61674 59.9991 2.5787 59.9991 3.85592C60.0156 4.9068 59.7938 5.73133 59.3339 6.32953C58.874 6.91155 58.1431 7.20257 57.1412 7.20257H50.1441V5.602H56.5991C57.1412 5.602 57.4943 5.42416 57.6586 5.06847C57.8228 4.69663 57.9049 4.29244 57.9049 3.85592C57.8885 3.09606 57.6586 2.55444 57.2151 2.2311C56.7716 1.90775 56.016 1.74608 54.9484 1.74608C54.0779 1.74608 53.3881 1.87541 52.8789 2.13409C52.3861 2.37661 52.033 2.81312 51.8194 3.44365C51.6223 4.05801 51.5238 4.92297 51.5238 6.03852C51.5238 7.29957 51.647 8.26155 51.8933 8.92439C52.1562 9.58724 52.5668 10.0399 53.1252 10.2825C53.6837 10.525 54.4228 10.6462 55.3426 10.6462C55.9832 10.6462 56.6812 10.622 57.4368 10.5735C58.2088 10.5088 58.8986 10.436 59.5064 10.3552L59.7281 11.7375C59.3504 11.883 58.8823 12.0043 58.3238 12.1013C57.7818 12.1983 57.2151 12.271 56.6238 12.3195C56.0489 12.368 55.5315 12.3923 55.0716 12.3923C53.6919 12.3923 52.5832 12.1902 51.7455 11.786C50.9078 11.3657 50.2919 10.7028 49.8977 9.79743C49.5199 8.87589 49.331 7.66334 49.331 6.15977C49.331 4.6077 49.5199 3.38707 49.8977 2.49786C50.2919 1.59249 50.8914 0.953874 51.6962 0.582025C52.5175 0.194008 53.5687 0 54.8499 0Z" fill="white"/>
</svg>
