<svg width="18" height="18" viewBox="0 0 18 18" fill="none" xmlns="http://www.w3.org/2000/svg">
<path fill-rule="evenodd" clip-rule="evenodd" d="M4.50037 12.6H13.5004C15.9856 12.6 18.0004 14.6147 18.0004 17.1C18.0004 17.5971 17.5974 18 17.1004 18C16.6388 18 16.2584 17.6526 16.2064 17.205L16.1958 16.9414C16.1167 15.5765 15.0238 14.4837 13.659 14.4046L13.5004 14.4H4.50037C3.0092 14.4 1.80037 15.6088 1.80037 17.1C1.80037 17.5971 1.39742 18 0.900366 18C0.40331 18 0.000366211 17.5971 0.000366211 17.1C0.000366211 14.6801 1.91044 12.7064 4.30517 12.6042L4.50037 12.6H13.5004H4.50037ZM9.0003 0C11.9826 0 14.4003 2.41766 14.4003 5.4C14.4003 8.38234 11.9826 10.8 9.0003 10.8C6.01796 10.8 3.6003 8.38234 3.6003 5.4C3.6003 2.41766 6.01796 0 9.0003 0ZM9.00043 1.8C7.01221 1.8 5.40043 3.41178 5.40043 5.4C5.40043 7.38823 7.01221 9 9.00043 9C10.9887 9 12.6004 7.38823 12.6004 5.4C12.6004 3.41178 10.9887 1.8 9.00043 1.8Z" fill="white"/>
</svg>
